# This file uses centimeters as units for non-parametric coordinates.

g default
v 4.754546 8.094612 0.709289
v 4.706133 8.143024 0.660877
v 1.990783 8.143024 0.660877
v 1.942370 8.094612 0.709289
v 4.706133 8.143024 -2.054474
v 4.754546 8.094612 -2.102887
v 1.990783 8.143024 -2.054474
v 1.942370 8.094612 -2.102887
v 4.667401 5.551096 -2.015743
v 4.754546 5.638241 -2.102887
v 2.029514 5.551096 -2.015743
v 1.942370 5.638241 -2.102887
v 2.029514 5.551096 0.622145
v 1.942370 5.638241 0.709289
v 4.667401 5.551096 0.622145
v 4.754546 5.638241 0.709289
vt 0.379304 0.495696
vt 0.379304 0.254304
vt 0.620696 0.254304
vt 0.620696 0.495696
vt 0.625000 0.524997
vt 0.375000 0.705004
vt 0.382747 0.757747
vt 0.617253 0.757747
vt 0.625000 1.000000
vt 0.617253 0.992253
vt 0.375000 1.000000
vt 0.382747 0.992253
vt 0.375000 0.044996
vt 0.625000 0.225003
vt 0.375000 0.524997
vt 0.625000 0.705004
vt 0.625000 0.044996
vt 0.875000 0.225003
vt 0.875000 0.044996
vt 0.125000 0.044996
vt 0.125000 0.225003
vt 0.375000 0.225003
vn 0.707106 0.707107 0.000000
vn 0.707106 0.707107 0.000000
vn 0.707106 0.707108 0.000000
vn 0.707106 0.707108 0.000000
vn 0.000000 0.707110 0.707103
vn 0.000000 0.707110 0.707103
vn 0.000000 0.707110 0.707103
vn 0.000000 0.707110 0.707103
vn -0.707103 0.707110 0.000000
vn -0.707103 0.707110 0.000000
vn -0.707103 0.707110 0.000000
vn -0.707103 0.707110 0.000000
vn 0.000000 0.707110 -0.707103
vn 0.000000 0.707110 -0.707103
vn 0.000000 0.707110 -0.707103
vn 0.000000 0.707110 -0.707103
vn 0.000000 1.000000 0.000000
vn 0.000000 1.000000 0.000000
vn 0.000000 1.000000 0.000000
vn 0.000000 1.000000 0.000000
vn 0.707108 -0.707105 0.000000
vn 0.707108 -0.707105 0.000000
vn 0.707108 -0.707105 0.000000
vn 0.707108 -0.707105 0.000000
vn 0.000000 -0.707104 -0.707110
vn 0.000000 -0.707104 -0.707110
vn 0.000000 -0.707104 -0.707110
vn 0.000000 -0.707104 -0.707110
vn -0.707110 -0.707104 0.000000
vn -0.707110 -0.707104 0.000000
vn -0.707110 -0.707104 0.000000
vn -0.707110 -0.707104 0.000000
vn 0.000000 -0.707104 0.707110
vn 0.000000 -0.707104 0.707110
vn 0.000000 -0.707104 0.707110
vn 0.000000 -0.707104 0.707110
vn 0.000000 -1.000000 0.000000
vn 0.000000 -1.000000 0.000000
vn 0.000000 -1.000000 0.000000
vn 0.000000 -1.000000 0.000000
vn 0.000000 0.000000 1.000000
vn 0.000000 0.000000 1.000000
vn 0.000000 0.000000 1.000000
vn 0.000000 0.000000 1.000000
vn 0.000000 0.000000 -1.000000
vn 0.000000 0.000000 -1.000000
vn 0.000000 0.000000 -1.000000
vn 0.000000 0.000000 -1.000000
vn -1.000000 0.000000 0.000000
vn -1.000000 0.000000 0.000000
vn -1.000000 0.000000 0.000000
vn -1.000000 0.000000 0.000000
vn 1.000000 0.000000 0.000000
vn 1.000000 0.000000 0.000000
vn 1.000000 0.000000 0.000000
vn 1.000000 0.000000 0.000000
s off
g floor_block
f 1/22/1 6/15/2 5/1/3 2/2/4
f 2/2/5 3/3/6 4/14/7 1/22/8
f 3/3/9 7/4/10 8/5/11 4/14/12
f 6/15/13 8/5/14 7/4/15 5/1/16
f 2/2/17 5/1/18 7/4/19 3/3/20
f 9/7/21 10/6/22 16/11/23 15/12/24
f 10/6/25 9/7/26 11/8/27 12/16/28
f 12/16/29 11/8/30 13/10/31 14/9/32
f 14/9/33 13/10/34 15/12/35 16/11/36
f 9/7/37 15/12/38 13/10/39 11/8/40
f 16/13/41 1/22/42 4/14/43 14/17/44
f 6/15/45 10/6/46 12/16/47 8/5/48
f 14/17/49 4/14/50 8/18/51 12/19/52
f 10/20/53 6/21/54 1/22/55 16/13/56
