# This file uses centimeters as units for non-parametric coordinates.

g default
v 23.891329 7.989341 -19.743845
v 23.889011 7.989341 -19.803993
v 24.073538 7.989341 -19.734745
v 20.946066 7.989342 -19.890892
v 21.136574 7.989342 -19.941417
v 21.138896 7.989341 -19.881268
v 23.839141 7.989341 -18.805236
v 23.847440 7.989341 -18.864856
v 24.029653 7.989341 -18.855760
v 20.902181 7.989342 -19.011905
v 21.095007 7.989341 -19.002277
v 21.086705 7.989342 -18.942663
v 24.031010 9.799732 -19.736867
v 23.846477 9.798321 -19.806118
v 23.838178 9.858259 -19.746496
v 21.085744 9.837552 -19.883923
v 21.094040 9.777614 -19.943541
v 20.903539 9.776203 -19.893021
v 21.041850 9.837552 -19.004937
v 20.859650 9.776204 -19.014035
v 21.044171 9.777615 -18.944786
v 23.794289 9.858259 -18.867507
v 23.796611 9.798322 -18.807362
v 23.987125 9.799733 -18.857880
vt 0.389989 0.985010
vt 0.375000 0.985010
vt 0.375000 0.764990
vt 0.389989 0.764990
vt 0.389989 1.000000
vt 0.610011 0.985010
vt 0.610011 1.000000
vt 0.360010 0.003571
vt 0.389989 0.003571
vt 0.389989 0.032143
vt 0.360010 0.032143
vt 0.625000 0.985010
vt 0.610011 0.764990
vt 0.625000 0.764990
vt 0.610011 0.003571
vt 0.639990 0.003571
vt 0.639990 0.032143
vt 0.610011 0.032143
vt 0.389990 0.746429
vt 0.375000 0.746429
vt 0.375000 0.717857
vt 0.389989 0.717857
vt 0.610011 0.746429
vt 0.860010 0.003571
vt 0.875000 0.003571
vt 0.875000 0.032143
vt 0.860010 0.032143
vt 0.389989 0.076400
vt 0.169969 0.076400
vt 0.139990 0.032143
vt 0.610011 0.076400
vt 0.639990 0.035714
vt 0.860010 0.035714
vt 0.610010 0.714286
vt 0.610011 0.717857
vt 0.389989 0.714286
vt 0.139990 0.003571
vt 0.610011 0.673600
vn -0.000000 -1.000000 -0.000000
vn -0.000000 -1.000000 -0.000000
vn -0.000000 -1.000000 -0.000000
vn -0.000000 -1.000000 -0.000000
vn 0.000001 -1.000000 -0.000000
vn 0.000001 -1.000000 -0.000000
vn 0.000001 -1.000000 -0.000000
vn 0.000001 -1.000000 -0.000000
vn 0.351320 0.007158 -0.936228
vn 0.351320 0.007158 -0.936228
vn 0.351320 0.007158 -0.936228
vn 0.351320 0.007158 -0.936228
vn -0.000005 -1.000000 -0.000000
vn -0.000005 -1.000000 -0.000000
vn -0.000005 -1.000000 -0.000000
vn -0.000005 -1.000000 -0.000000
vn -0.256313 -0.007248 -0.966567
vn -0.256313 -0.007248 -0.966567
vn -0.256313 -0.007248 -0.966567
vn -0.256313 -0.007248 -0.966567
vn 0.256293 0.007157 0.966573
vn 0.256293 0.007157 0.966573
vn 0.256293 0.007157 0.966573
vn 0.256293 0.007157 0.966573
vn -0.000001 -1.000000 0.000000
vn -0.000001 -1.000000 0.000000
vn -0.000001 -1.000000 0.000000
vn -0.000001 -1.000000 0.000000
vn -0.351310 -0.007245 0.936231
vn -0.351310 -0.007245 0.936231
vn -0.351310 -0.007245 0.936231
vn -0.351310 -0.007245 0.936231
vn 0.289734 0.956998 0.014466
vn 0.289734 0.956998 0.014466
vn 0.289734 0.956998 0.014466
vn 0.289735 0.956998 0.014466
vn 0.029959 0.706982 -0.706597
vn 0.029959 0.706982 -0.706597
vn 0.029959 0.706982 -0.706597
vn 0.029959 0.706982 -0.706597
vn -0.318349 0.947840 -0.015898
vn -0.318349 0.947840 -0.015898
vn -0.318349 0.947840 -0.015898
vn -0.318349 0.947840 -0.015898
vn -0.040573 0.706984 0.706065
vn -0.040573 0.706984 0.706065
vn -0.040573 0.706984 0.706065
vn -0.040573 0.706984 0.706065
vn 0.000000 -1.000000 0.000000
vn 0.000000 -1.000000 0.000000
vn 0.000000 -1.000000 0.000000
vn 0.000000 -1.000000 0.000000
vn 0.049866 -0.000000 -0.998756
vn 0.049866 -0.000000 -0.998756
vn 0.049866 -0.000000 -0.998756
vn 0.049866 -0.000000 -0.998756
vn -0.998472 -0.023823 -0.049853
vn -0.998472 -0.023823 -0.049853
vn -0.998472 -0.023823 -0.049853
vn -0.998472 -0.023823 -0.049853
vn -0.049866 0.000001 0.998756
vn -0.049866 0.000001 0.998756
vn -0.049866 0.000001 0.998756
vn -0.049866 0.000001 0.998756
vn 0.998480 0.023514 0.049851
vn 0.998480 0.023514 0.049851
vn 0.998480 0.023514 0.049851
vn 0.998480 0.023514 0.049851
vn -0.007504 0.999972 -0.000374
vn -0.007504 0.999972 -0.000374
vn -0.007504 0.999972 -0.000374
vn -0.007504 0.999972 -0.000374
vn -0.000000 -1.000000 0.000000
vn -0.000000 -1.000000 0.000000
vn -0.000000 -1.000000 0.000000
vn -0.000006 -1.000000 -0.000041
vn -0.000006 -1.000000 -0.000041
vn -0.000006 -1.000000 -0.000041
vn -0.000000 -1.000000 0.000000
vn -0.000000 -1.000000 0.000000
vn -0.000000 -1.000000 0.000000
vn -0.000004 -1.000000 0.000041
vn -0.000004 -1.000000 0.000041
vn -0.000004 -1.000000 0.000041
vn 0.246054 0.700466 -0.669929
vn 0.246054 0.700466 -0.669929
vn 0.246054 0.700466 -0.669929
vn -0.193016 0.678391 -0.708894
vn -0.193016 0.678391 -0.708894
vn -0.193016 0.678391 -0.708894
vn -0.262678 0.678395 0.686134
vn -0.262678 0.678395 0.686134
vn -0.262678 0.678395 0.686134
vn 0.178078 0.700442 0.691136
vn 0.178078 0.700442 0.691136
vn 0.178078 0.700442 0.691136
s off
g stair_step_1 stairs group7
f 1/1/1 3/2/2 9/3/3 8/4/4
f 2/5/5 1/1/6 6/6/7 5/7/8
f 3/8/9 2/9/10 14/10/11 13/11/12
f 4/12/13 6/6/14 11/13/15 10/14/16
f 5/15/17 4/16/18 18/17/19 17/18/20
f 7/19/21 9/20/22 24/21/23 23/22/24
f 8/4/25 7/19/26 12/23/27 11/13/28
f 10/24/29 12/25/30 21/26/31 20/27/32
f 13/11/33 15/28/34 22/29/35 24/30/36
f 15/28/37 14/10/38 17/18/39 16/31/40
f 16/32/41 18/17/42 20/27/43 19/33/44
f 19/34/45 21/35/46 23/22/47 22/36/48
f 8/4/49 11/13/50 6/6/51 1/1/52
f 2/9/53 5/15/54 17/18/55 14/10/56
f 4/16/57 10/24/58 20/27/59 18/17/60
f 23/22/61 21/35/62 12/23/63 7/19/64
f 9/37/65 3/8/66 13/11/67 24/30/68
f 16/31/69 19/38/70 22/29/71 15/28/72
f 1/1/73 2/5/74 3/2/75
f 4/12/76 5/7/77 6/6/78
f 7/19/79 8/4/80 9/3/81
f 10/14/82 11/13/83 12/23/84
f 13/11/85 14/10/86 15/28/87
f 16/31/88 17/18/89 18/17/90
f 19/33/91 20/27/92 21/26/93
f 22/36/94 23/22/95 24/21/96
g default
v 23.911253 7.989342 -18.782696
v 23.908935 7.989342 -18.842840
v 24.093253 7.989342 -18.773603
v 20.969299 7.989341 -18.929631
v 21.159598 7.989341 -18.980158
v 21.161916 7.989341 -18.920009
v 23.859084 7.989342 -17.844080
v 23.867380 7.989342 -17.903702
v 24.049385 7.989342 -17.894615
v 20.925431 7.989341 -18.050643
v 21.118043 7.989341 -18.041019
v 21.109749 7.989341 -17.981403
v 23.985344 9.441201 -18.777969
v 23.801090 9.430935 -18.847205
v 23.789956 9.490510 -18.787686
v 21.041603 9.339184 -18.924969
v 21.052728 9.279609 -18.984493
v 20.862508 9.269256 -18.933959
v 20.997723 9.338535 -18.045979
v 20.818636 9.268608 -18.054971
v 21.002881 9.278873 -17.985738
v 23.746084 9.489861 -17.908696
v 23.751240 9.430199 -17.848450
v 23.941477 9.440553 -17.898978
vt 0.389989 0.985010
vt 0.375000 0.985010
vt 0.375000 0.764990
vt 0.389989 0.764990
vt 0.389989 1.000000
vt 0.610011 0.985010
vt 0.610011 1.000000
vt 0.360010 0.003571
vt 0.389989 0.003571
vt 0.389989 0.032143
vt 0.360010 0.032143
vt 0.625000 0.985010
vt 0.610011 0.764990
vt 0.625000 0.764990
vt 0.610011 0.003571
vt 0.639990 0.003571
vt 0.639990 0.032143
vt 0.610011 0.032143
vt 0.389990 0.746429
vt 0.375000 0.746429
vt 0.375000 0.717857
vt 0.389989 0.717857
vt 0.610011 0.746429
vt 0.860010 0.003571
vt 0.875000 0.003571
vt 0.875000 0.032143
vt 0.860010 0.032143
vt 0.389989 0.076400
vt 0.169969 0.076400
vt 0.139990 0.032143
vt 0.610011 0.076400
vt 0.639990 0.035714
vt 0.860010 0.035714
vt 0.610010 0.714286
vt 0.610011 0.717857
vt 0.389989 0.714286
vt 0.139990 0.003571
vt 0.610011 0.673600
vn -0.000000 -1.000000 -0.000000
vn -0.000000 -1.000000 -0.000000
vn -0.000000 -1.000000 -0.000000
vn -0.000000 -1.000000 -0.000000
vn 0.000000 -1.000000 -0.000000
vn 0.000000 -1.000000 -0.000000
vn 0.000000 -1.000000 -0.000000
vn 0.000000 -1.000000 -0.000000
vn 0.351030 0.023350 -0.936073
vn 0.351030 0.023350 -0.936073
vn 0.351030 0.023350 -0.936073
vn 0.351031 0.023350 -0.936073
vn -0.000000 -1.000000 -0.000001
vn -0.000000 -1.000000 -0.000001
vn -0.000000 -1.000000 -0.000001
vn -0.000000 -1.000000 -0.000001
vn -0.255990 -0.024538 -0.966368
vn -0.255990 -0.024538 -0.966368
vn -0.255990 -0.024538 -0.966368
vn -0.255990 -0.024538 -0.966368
vn 0.256060 0.022020 0.966410
vn 0.256060 0.022020 0.966410
vn 0.256060 0.022020 0.966410
vn 0.256060 0.022020 0.966410
vn 0.000000 -1.000000 -0.000000
vn 0.000000 -1.000000 -0.000000
vn 0.000000 -1.000000 -0.000000
vn 0.000000 -1.000000 -0.000000
vn -0.350952 -0.026034 0.936032
vn -0.350952 -0.026034 0.936032
vn -0.350952 -0.026034 0.936032
vn -0.350952 -0.026034 0.936032
vn 0.244063 0.969674 0.012898
vn 0.244063 0.969674 0.012898
vn 0.244063 0.969674 0.012898
vn 0.244063 0.969674 0.012898
vn -0.003545 0.706450 -0.707754
vn -0.003545 0.706450 -0.707754
vn -0.003545 0.706450 -0.707754
vn -0.003545 0.706450 -0.707754
vn -0.362900 0.931665 -0.017428
vn -0.362900 0.931665 -0.017428
vn -0.362900 0.931665 -0.017428
vn -0.362900 0.931665 -0.017428
vn -0.074051 0.705396 0.704934
vn -0.074051 0.705396 0.704934
vn -0.074051 0.705396 0.704934
vn -0.074051 0.705396 0.704934
vn 0.000000 -1.000000 -0.000000
vn 0.000000 -1.000000 -0.000000
vn 0.000000 -1.000000 -0.000000
vn 0.000000 -1.000000 -0.000000
vn 0.049867 0.000739 -0.998756
vn 0.049867 0.000739 -0.998756
vn 0.049867 0.000739 -0.998756
vn 0.049867 0.000739 -0.998756
vn -0.995290 -0.083233 -0.049705
vn -0.995290 -0.083233 -0.049705
vn -0.995290 -0.083233 -0.049705
vn -0.995290 -0.083233 -0.049705
vn -0.049868 -0.000737 0.998756
vn -0.049868 -0.000737 0.998756
vn -0.049868 -0.000737 0.998756
vn -0.049868 -0.000737 0.998756
vn 0.996003 0.074193 0.049735
vn 0.996003 0.074193 0.049735
vn 0.996003 0.074193 0.049735
vn 0.996003 0.074193 0.049735
vn -0.054877 0.998491 -0.002000
vn -0.054877 0.998491 -0.002000
vn -0.054877 0.998491 -0.002000
vn -0.054877 0.998491 -0.002000
vn -0.000000 -1.000000 0.000000
vn -0.000000 -1.000000 0.000000
vn -0.000000 -1.000000 0.000000
vn 0.000001 -1.000000 0.000021
vn 0.000001 -1.000000 0.000021
vn 0.000001 -1.000000 0.000021
vn -0.000000 -1.000000 0.000000
vn -0.000000 -1.000000 0.000000
vn -0.000000 -1.000000 0.000000
vn -0.000000 -1.000000 0.000000
vn -0.000000 -1.000000 0.000000
vn -0.000000 -1.000000 0.000000
vn 0.212609 0.710218 -0.671109
vn 0.212609 0.710218 -0.671109
vn 0.212609 0.710218 -0.671109
vn -0.224931 0.667356 -0.709959
vn -0.224931 0.667356 -0.709959
vn -0.224931 0.667356 -0.709959
vn -0.294546 0.666259 0.685085
vn -0.294546 0.666259 0.685085
vn -0.294546 0.666259 0.685085
vn 0.144660 0.709240 0.689965
vn 0.144660 0.709240 0.689965
vn 0.144660 0.709240 0.689965
s off
g stairs group7 stair_step_2
f 25/39/97 27/40/98 33/41/99 32/42/100
f 26/43/101 25/39/102 30/44/103 29/45/104
f 27/46/105 26/47/106 38/48/107 37/49/108
f 28/50/109 30/44/110 35/51/111 34/52/112
f 29/53/113 28/54/114 42/55/115 41/56/116
f 31/57/117 33/58/118 48/59/119 47/60/120
f 32/42/121 31/57/122 36/61/123 35/51/124
f 34/62/125 36/63/126 45/64/127 44/65/128
f 37/49/129 39/66/130 46/67/131 48/68/132
f 39/66/133 38/48/134 41/56/135 40/69/136
f 40/70/137 42/55/138 44/65/139 43/71/140
f 43/72/141 45/73/142 47/60/143 46/74/144
f 32/42/145 35/51/146 30/44/147 25/39/148
f 26/47/149 29/53/150 41/56/151 38/48/152
f 28/54/153 34/62/154 44/65/155 42/55/156
f 47/60/157 45/73/158 36/61/159 31/57/160
f 33/75/161 27/46/162 37/49/163 48/68/164
f 40/69/165 43/76/166 46/67/167 39/66/168
f 25/39/169 26/43/170 27/40/171
f 28/50/172 29/45/173 30/44/174
f 31/57/175 32/42/176 33/41/177
f 34/52/178 35/51/179 36/61/180
f 37/49/181 38/48/182 39/66/183
f 40/69/184 41/56/185 42/55/186
f 43/71/187 44/65/188 45/64/189
f 46/74/190 47/60/191 48/59/192
g default
v 23.835934 7.989340 -17.882567
v 23.831491 7.989341 -17.942589
v 24.018223 7.989341 -17.879925
v 20.889298 7.989342 -17.925196
v 21.077773 7.989342 -17.982433
v 21.082221 7.989342 -17.922402
v 23.817029 7.989341 -16.942700
v 23.823210 7.989341 -17.002567
v 24.005506 7.989341 -16.999940
v 20.876580 7.989342 -17.045205
v 21.069498 7.989342 -17.042412
v 21.063318 7.989342 -16.982537
v 24.009816 8.862276 -17.880314
v 23.823021 8.867748 -17.942983
v 23.819044 8.927857 -17.883091
v 21.064575 9.008418 -17.922945
v 21.068543 8.948308 -17.982832
v 20.880026 8.953814 -17.925590
v 21.051843 9.008671 -17.042948
v 20.867307 8.954068 -17.045599
v 21.054089 8.948597 -16.982934
v 23.806325 8.928110 -17.003107
v 23.808569 8.868037 -16.943087
v 23.997097 8.862531 -17.000329
vt 0.389989 0.985010
vt 0.375000 0.985010
vt 0.375000 0.764990
vt 0.389989 0.764990
vt 0.389989 1.000000
vt 0.610011 0.985010
vt 0.610011 1.000000
vt 0.360010 0.003571
vt 0.389989 0.003571
vt 0.389989 0.032143
vt 0.360010 0.032143
vt 0.625000 0.985010
vt 0.610011 0.764990
vt 0.625000 0.764990
vt 0.610011 0.003571
vt 0.639990 0.003571
vt 0.639990 0.032143
vt 0.610011 0.032143
vt 0.389990 0.746429
vt 0.375000 0.746429
vt 0.375000 0.717857
vt 0.389989 0.717857
vt 0.610011 0.746429
vt 0.860010 0.003571
vt 0.875000 0.003571
vt 0.875000 0.032143
vt 0.860010 0.032143
vt 0.389989 0.076400
vt 0.169969 0.076400
vt 0.139990 0.032143
vt 0.610011 0.076400
vt 0.639990 0.035714
vt 0.860010 0.035714
vt 0.610010 0.714286
vt 0.610011 0.717857
vt 0.389989 0.714286
vt 0.139990 0.003571
vt 0.610011 0.673600
vn 0.000003 -1.000000 0.000000
vn 0.000003 -1.000000 0.000000
vn 0.000003 -1.000000 0.000000
vn 0.000003 -1.000000 0.000000
vn 0.000000 -1.000000 -0.000000
vn 0.000000 -1.000000 -0.000000
vn 0.000000 -1.000000 -0.000000
vn 0.000000 -1.000000 -0.000000
vn 0.318142 0.002642 -0.948040
vn 0.318141 0.002642 -0.948040
vn 0.318142 0.002642 -0.948040
vn 0.318142 0.002642 -0.948040
vn 0.000000 -1.000000 0.000000
vn 0.000000 -1.000000 0.000000
vn 0.000000 -1.000000 0.000000
vn 0.000000 -1.000000 0.000000
vn -0.290604 -0.003190 -0.956838
vn -0.290604 -0.003190 -0.956838
vn -0.290604 -0.003190 -0.956838
vn -0.290604 -0.003190 -0.956838
vn 0.290602 0.003222 0.956839
vn 0.290602 0.003222 0.956839
vn 0.290602 0.003222 0.956839
vn 0.290602 0.003222 0.956839
vn -0.000000 -1.000000 0.000000
vn -0.000000 -1.000000 0.000000
vn -0.000000 -1.000000 0.000000
vn -0.000000 -1.000000 0.000000
vn -0.318147 -0.002670 0.948038
vn -0.318147 -0.002670 0.948038
vn -0.318147 -0.002670 0.948038
vn -0.318147 -0.002670 0.948038
vn 0.325028 0.945694 0.004426
vn 0.325028 0.945694 0.004426
vn 0.325028 0.945694 0.004426
vn 0.325028 0.945694 0.004426
vn 0.030892 0.706497 -0.707042
vn 0.030892 0.706497 -0.707042
vn 0.030892 0.706497 -0.707042
vn 0.030892 0.706497 -0.707042
vn -0.283666 0.958913 -0.004379
vn -0.283666 0.958913 -0.004379
vn -0.283666 0.958913 -0.004379
vn -0.283666 0.958913 -0.004379
vn 0.010446 0.706926 0.707211
vn 0.010446 0.706925 0.707211
vn 0.010446 0.706926 0.707211
vn 0.010446 0.706925 0.707211
vn -0.000001 -1.000000 0.000001
vn -0.000001 -1.000000 0.000001
vn -0.000001 -1.000000 0.000001
vn -0.000001 -1.000000 0.000001
vn 0.014462 -0.000292 -0.999895
vn 0.014462 -0.000292 -0.999895
vn 0.014462 -0.000292 -0.999895
vn 0.014462 -0.000292 -0.999895
vn -0.999849 -0.009617 -0.014450
vn -0.999849 -0.009617 -0.014450
vn -0.999849 -0.009617 -0.014450
vn -0.999849 -0.009617 -0.014450
vn -0.014461 0.000287 0.999895
vn -0.014461 0.000287 0.999895
vn -0.014461 0.000287 0.999895
vn -0.014461 0.000287 0.999895
vn 0.999849 0.009635 0.014449
vn 0.999849 0.009635 0.014449
vn 0.999849 0.009635 0.014449
vn 0.999849 0.009635 0.014449
vn 0.029233 0.999573 0.000134
vn 0.029233 0.999573 0.000134
vn 0.029233 0.999573 0.000134
vn 0.029233 0.999573 0.000134
vn 0.000006 -1.000000 -0.000000
vn 0.000006 -1.000000 -0.000000
vn 0.000006 -1.000000 -0.000000
vn -0.000000 -1.000000 0.000000
vn -0.000000 -1.000000 0.000000
vn -0.000000 -1.000000 0.000000
vn -0.000000 -1.000000 0.000000
vn -0.000000 -1.000000 0.000000
vn -0.000000 -1.000000 0.000000
vn -0.000000 -1.000000 0.000000
vn -0.000000 -1.000000 0.000000
vn -0.000000 -1.000000 0.000000
vn 0.247754 0.691992 -0.678060
vn 0.247754 0.691992 -0.678060
vn 0.247754 0.691992 -0.678060
vn -0.192949 0.686102 -0.701452
vn -0.192949 0.686102 -0.701452
vn -0.192949 0.686102 -0.701452
vn -0.213120 0.686508 0.695188
vn -0.213120 0.686508 0.695188
vn -0.213120 0.686508 0.695188
vn 0.228054 0.692411 0.684513
vn 0.228054 0.692411 0.684513
vn 0.228054 0.692411 0.684513
s off
g stairs group7 stair_step_3
f 49/77/193 51/78/194 57/79/195 56/80/196
f 50/81/197 49/77/198 54/82/199 53/83/200
f 51/84/201 50/85/202 62/86/203 61/87/204
f 52/88/205 54/82/206 59/89/207 58/90/208
f 53/91/209 52/92/210 66/93/211 65/94/212
f 55/95/213 57/96/214 72/97/215 71/98/216
f 56/80/217 55/95/218 60/99/219 59/89/220
f 58/100/221 60/101/222 69/102/223 68/103/224
f 61/87/225 63/104/226 70/105/227 72/106/228
f 63/104/229 62/86/230 65/94/231 64/107/232
f 64/108/233 66/93/234 68/103/235 67/109/236
f 67/110/237 69/111/238 71/98/239 70/112/240
f 56/80/241 59/89/242 54/82/243 49/77/244
f 50/85/245 53/91/246 65/94/247 62/86/248
f 52/92/249 58/100/250 68/103/251 66/93/252
f 71/98/253 69/111/254 60/99/255 55/95/256
f 57/113/257 51/84/258 61/87/259 72/106/260
f 64/107/261 67/114/262 70/105/263 63/104/264
f 49/77/265 50/81/266 51/78/267
f 52/88/268 53/83/269 54/82/270
f 55/95/271 56/80/272 57/79/273
f 58/90/274 59/89/275 60/99/276
f 61/87/277 62/86/278 63/104/279
f 64/107/280 65/94/281 66/93/282
f 67/109/283 68/103/284 69/102/285
f 70/112/286 71/98/287 72/97/288
g default
v 23.838064 7.989341 -17.061796
v 23.832273 7.989341 -17.121712
v 24.020491 7.989341 -17.063243
v 20.889222 7.989342 -17.038433
v 21.076495 7.989342 -17.099878
v 21.082288 7.989341 -17.039965
v 23.840192 7.989341 -16.121742
v 23.845034 7.989341 -16.181742
v 24.027468 7.989341 -16.183189
v 20.896193 7.989342 -16.158376
v 21.089259 7.989341 -16.159906
v 21.084417 7.989342 -16.099909
v 23.977912 8.504147 -17.062910
v 23.789688 8.502735 -17.121373
v 23.784846 8.562674 -17.061376
v 21.029074 8.541967 -17.039546
v 21.033906 8.482028 -17.099542
v 20.846643 8.480618 -17.038095
v 21.036036 8.541967 -16.159485
v 20.853616 8.480619 -16.158039
v 21.041830 8.482029 -16.099573
v 23.791818 8.562674 -16.181318
v 23.797609 8.502736 -16.121407
v 23.984887 8.504148 -16.182848
vt 0.389989 0.985010
vt 0.375000 0.985010
vt 0.375000 0.764990
vt 0.389989 0.764990
vt 0.389989 1.000000
vt 0.610011 0.985010
vt 0.610011 1.000000
vt 0.360010 0.003571
vt 0.389989 0.003571
vt 0.389989 0.032143
vt 0.360010 0.032143
vt 0.625000 0.985010
vt 0.610011 0.764990
vt 0.625000 0.764990
vt 0.610011 0.003571
vt 0.639990 0.003571
vt 0.639990 0.032143
vt 0.610011 0.032143
vt 0.389990 0.746429
vt 0.375000 0.746429
vt 0.375000 0.717857
vt 0.389989 0.717857
vt 0.610011 0.746429
vt 0.860010 0.003571
vt 0.875000 0.003571
vt 0.875000 0.032143
vt 0.860010 0.032143
vt 0.389989 0.076400
vt 0.169969 0.076400
vt 0.139990 0.032143
vt 0.610011 0.076400
vt 0.639990 0.035714
vt 0.860010 0.035714
vt 0.610010 0.714286
vt 0.610011 0.717857
vt 0.389989 0.714286
vt 0.139990 0.003571
vt 0.610011 0.673600
vn -0.000000 -1.000000 0.000000
vn -0.000000 -1.000000 0.000000
vn -0.000000 -1.000000 0.000000
vn -0.000000 -1.000000 0.000000
vn 0.000000 -1.000000 -0.000000
vn 0.000000 -1.000000 -0.000000
vn 0.000000 -1.000000 -0.000000
vn 0.000000 -1.000000 -0.000000
vn 0.296464 0.025179 -0.954712
vn 0.296464 0.025179 -0.954712
vn 0.296464 0.025179 -0.954712
vn 0.296464 0.025179 -0.954712
vn -0.000005 -1.000000 0.000000
vn -0.000005 -1.000000 0.000000
vn -0.000005 -1.000000 0.000000
vn -0.000005 -1.000000 0.000000
vn -0.311568 -0.026317 -0.949859
vn -0.311568 -0.026317 -0.949859
vn -0.311568 -0.026317 -0.949859
vn -0.311568 -0.026317 -0.949859
vn 0.311556 0.025181 0.949894
vn 0.311556 0.025181 0.949894
vn 0.311556 0.025181 0.949894
vn 0.311556 0.025181 0.949894
vn -0.000001 -1.000000 0.000000
vn -0.000001 -1.000000 0.000000
vn -0.000001 -1.000000 0.000000
vn -0.000001 -1.000000 0.000000
vn -0.296454 -0.026312 0.954685
vn -0.296454 -0.026312 0.954685
vn -0.296454 -0.026312 0.954685
vn -0.296454 -0.026312 0.954685
vn 0.290086 0.956998 -0.002299
vn 0.290086 0.956998 -0.002299
vn 0.290086 0.956998 -0.002299
vn 0.290086 0.956998 -0.002299
vn -0.010914 0.706967 -0.707162
vn -0.010914 0.706967 -0.707162
vn -0.010914 0.706967 -0.707162
vn -0.010914 0.706967 -0.707162
vn -0.318733 0.947841 0.002524
vn -0.318733 0.947841 0.002524
vn -0.318733 0.947841 0.002524
vn -0.318733 0.947841 0.002524
vn 0.000290 0.706973 0.707240
vn 0.000290 0.706973 0.707240
vn 0.000290 0.706973 0.707240
vn 0.000290 0.706973 0.707240
vn 0.000000 -1.000000 0.000001
vn 0.000000 -1.000000 0.000001
vn 0.000000 -1.000000 0.000001
vn 0.000000 -1.000000 0.000001
vn -0.007922 -0.000000 -0.999969
vn -0.007922 -0.000000 -0.999969
vn -0.007922 -0.000000 -0.999969
vn -0.007922 -0.000000 -0.999969
vn -0.996234 -0.086346 0.007893
vn -0.996234 -0.086346 0.007893
vn -0.996234 -0.086346 0.007893
vn -0.996234 -0.086346 0.007893
vn 0.007923 0.000003 0.999969
vn 0.007923 0.000003 0.999969
vn 0.007923 0.000003 0.999969
vn 0.007923 0.000003 0.999969
vn 0.996565 0.082432 -0.007900
vn 0.996565 0.082432 -0.007900
vn 0.996565 0.082432 -0.007900
vn 0.996565 0.082432 -0.007900
vn -0.007513 0.999972 0.000060
vn -0.007513 0.999972 0.000060
vn -0.007513 0.999972 0.000060
vn -0.007513 0.999972 0.000060
vn -0.000001 -1.000000 -0.000022
vn -0.000001 -1.000000 -0.000022
vn -0.000001 -1.000000 -0.000022
vn -0.000005 -1.000000 -0.000020
vn -0.000005 -1.000000 -0.000020
vn -0.000005 -1.000000 -0.000020
vn -0.000000 -1.000000 0.000000
vn -0.000000 -1.000000 0.000000
vn -0.000000 -1.000000 0.000000
vn -0.000005 -1.000000 0.000021
vn -0.000005 -1.000000 0.000021
vn -0.000005 -1.000000 0.000021
vn 0.206909 0.700441 -0.683060
vn 0.206909 0.700441 -0.683060
vn 0.206909 0.700441 -0.683060
vn -0.233668 0.678371 -0.696572
vn -0.233668 0.678371 -0.696572
vn -0.233668 0.678371 -0.696572
vn -0.222589 0.678375 0.700187
vn -0.222589 0.678375 0.700187
vn -0.222589 0.678375 0.700187
vn 0.217714 0.700435 0.679700
vn 0.217714 0.700434 0.679700
vn 0.217714 0.700435 0.679700
s off
g stairs group7 stair_step_4
f 73/115/289 75/116/290 81/117/291 80/118/292
f 74/119/293 73/115/294 78/120/295 77/121/296
f 75/122/297 74/123/298 86/124/299 85/125/300
f 76/126/301 78/120/302 83/127/303 82/128/304
f 77/129/305 76/130/306 90/131/307 89/132/308
f 79/133/309 81/134/310 96/135/311 95/136/312
f 80/118/313 79/133/314 84/137/315 83/127/316
f 82/138/317 84/139/318 93/140/319 92/141/320
f 85/125/321 87/142/322 94/143/323 96/144/324
f 87/142/325 86/124/326 89/132/327 88/145/328
f 88/146/329 90/131/330 92/141/331 91/147/332
f 91/148/333 93/149/334 95/136/335 94/150/336
f 80/118/337 83/127/338 78/120/339 73/115/340
f 74/123/341 77/129/342 89/132/343 86/124/344
f 76/130/345 82/138/346 92/141/347 90/131/348
f 95/136/349 93/149/350 84/137/351 79/133/352
f 81/151/353 75/122/354 85/125/355 96/144/356
f 88/145/357 91/152/358 94/143/359 87/142/360
f 73/115/361 74/119/362 75/116/363
f 76/126/364 77/121/365 78/120/366
f 79/133/367 80/118/368 81/117/369
f 82/128/370 83/127/371 84/137/372
f 85/125/373 86/124/374 87/142/375
f 88/145/376 89/132/377 90/131/378
f 91/147/379 92/141/380 93/140/381
f 94/150/382 95/136/383 96/135/384
