# This file uses centimeters as units for non-parametric coordinates.

g default
v -0.728516 -0.004285 0.093067
v 0.728516 -0.004285 0.093067
v -0.728516 0.121736 0.093067
v 0.728516 0.121736 0.093067
v -0.728516 0.121736 -0.093067
v 0.728516 0.121736 -0.093067
v -0.728516 -0.004285 -0.093067
v 0.728516 -0.004285 -0.093067
v -0.227717 -0.117274 0.206812
v -0.227717 -0.117274 -0.206812
v -0.331241 0.145786 -0.206812
v -0.331241 0.145786 0.206812
v 0.227716 -0.117274 0.206812
v 0.227716 -0.117274 -0.206812
v 0.331240 0.145786 -0.206812
v 0.331240 0.145786 0.206812
v -0.209255 0.145786 -0.044500
v 0.209254 0.145786 -0.044500
v -0.209255 0.145786 0.044500
v 0.209254 0.145786 0.044500
v -0.000000 -0.117274 -0.206812
v -0.000000 0.145786 -0.206812
v -0.000000 0.145786 -0.115954
v -0.000000 0.145786 0.115954
v -0.000000 0.145786 0.206812
v -0.000000 -0.117274 0.206812
v -0.000000 -0.161330 0.132750
v 0.141530 -0.161330 0.132750
v 0.141530 -0.161330 -0.132750
v -0.000000 -0.161330 -0.132750
v -0.141530 -0.161330 -0.132750
v -0.141530 -0.161330 0.132750
v -0.000000 0.044037 0.000000
vt 0.541667 0.250000
vt 0.541667 0.000000
vt 0.625000 0.000000
vt 0.625000 0.250000
vt 0.541667 0.500000
vt 0.625000 0.500000
vt 0.541667 0.750000
vt 0.625000 0.750000
vt 0.541667 1.000000
vt 0.625000 1.000000
vt 0.875000 0.000000
vt 0.875000 0.250000
vt 0.125000 0.000000
vt 0.375000 0.000000
vt 0.375000 0.250000
vt 0.125000 0.250000
vt 0.375000 0.750000
vt 0.458333 0.750000
vt 0.458333 1.000000
vt 0.375000 1.000000
vt 0.375000 0.500000
vt 0.458333 0.500000
vt 0.458333 0.250000
vt 0.458333 0.000000
vt 0.500000 0.750000
vt 0.500000 0.500000
vt 0.500000 0.250000
vt 0.500000 0.000000
vt 0.000000 0.000000
vt 0.500000 0.000000
vt 0.500000 1.000000
vt 0.000000 1.000000
vt 0.500000 1.000000
vt 0.500000 0.000000
vt 1.000000 0.000000
vt 1.000000 1.000000
vt 0.000000 0.000000
vt 1.000000 0.000000
vt 1.000000 1.000000
vt 0.000000 1.000000
vt 0.000000 0.000000
vt 1.000000 0.000000
vt 1.000000 1.000000
vt 0.000000 1.000000
vt 0.000000 0.000000
vt 0.500000 0.000000
vt 0.500000 1.000000
vt 0.000000 1.000000
vt 0.500000 1.000000
vt 0.500000 0.000000
vt 1.000000 0.000000
vt 1.000000 1.000000
vt 0.000000 0.000000
vt 1.000000 0.000000
vt 1.000000 1.000000
vt 0.000000 1.000000
vt 0.000000 0.000000
vt 1.000000 0.000000
vt 1.000000 1.000000
vt 0.000000 1.000000
vt 0.000000 0.000000
vt 0.000000 1.000000
vt 1.000000 0.000000
vt 1.000000 1.000000
vt 0.000000 0.000000
vt 0.000000 1.000000
vt 1.000000 0.000000
vt 1.000000 1.000000
vt 0.000000 0.000000
vt 1.000000 0.000000
vt 0.500000 1.000000
vt 0.000000 0.000000
vt 1.000000 0.000000
vt 0.500000 1.000000
vt 0.000000 0.000000
vt 1.000000 0.000000
vt 0.500000 1.000000
vt 0.000000 0.000000
vt 1.000000 0.000000
vt 0.500000 1.000000
vt 0.000000 0.000000
vt 1.000000 0.000000
vt 0.500000 1.000000
vt 0.000000 0.000000
vt 1.000000 0.000000
vt 0.500000 1.000000
vn 0.165168 -0.043947 0.985286
vn 0.095920 -0.025522 0.995062
vn 0.251219 -0.066843 0.965620
vn 0.251219 -0.066843 0.965620
vn 0.060427 0.998173 0.000000
vn 0.060427 0.998173 0.000000
vn 0.060427 0.998173 0.000000
vn 0.060427 0.998173 0.000000
vn 0.095920 -0.025522 -0.995062
vn 0.165168 -0.043947 -0.985286
vn 0.251219 -0.066843 -0.965620
vn 0.251219 -0.066843 -0.965620
vn 0.220085 -0.975481 0.000000
vn 0.220085 -0.975481 0.000000
vn 0.220085 -0.975481 0.000000
vn 0.220085 -0.975481 0.000000
vn 1.000000 0.000000 0.000000
vn 1.000000 0.000000 0.000000
vn 1.000000 0.000000 0.000000
vn 1.000000 0.000000 0.000000
vn -1.000000 0.000000 0.000000
vn -1.000000 0.000000 0.000000
vn -1.000000 0.000000 0.000000
vn -1.000000 0.000000 0.000000
vn -0.220085 -0.975481 0.000000
vn -0.220085 -0.975481 0.000000
vn -0.220085 -0.975481 0.000000
vn -0.220085 -0.975481 0.000000
vn -0.251219 -0.066843 -0.965620
vn -0.165168 -0.043947 -0.985286
vn -0.095920 -0.025522 -0.995062
vn -0.251219 -0.066843 -0.965620
vn -0.060427 0.998173 0.000000
vn -0.060427 0.998173 0.000000
vn -0.060427 0.998173 0.000000
vn -0.060427 0.998173 0.000000
vn -0.251219 -0.066843 0.965620
vn -0.095920 -0.025522 0.995062
vn -0.165168 -0.043947 0.985286
vn -0.251219 -0.066843 0.965620
vn 0.000000 0.000000 -1.000000
vn 0.000000 0.000000 -1.000000
vn 0.000000 0.000000 1.000000
vn 0.000000 0.000000 1.000000
vn 0.000000 -0.859435 0.511246
vn 0.000000 -0.859435 0.511246
vn 0.000000 -0.859435 0.511246
vn 0.000000 -0.859435 0.511246
vn 0.000000 -0.859435 -0.511246
vn 0.000000 -0.859435 -0.511246
vn 0.000000 -0.859435 -0.511246
vn 0.000000 -0.859435 -0.511246
vn -0.455157 -0.890411 0.000000
vn -0.455157 -0.890411 0.000000
vn -0.455157 -0.890411 0.000000
vn -0.455157 -0.890411 0.000000
vn 0.455157 -0.890411 0.000000
vn 0.455157 -0.890411 0.000000
vn 0.455157 -0.890411 0.000000
vn 0.455157 -0.890411 0.000000
vn 0.000000 1.000000 -0.000000
vn 0.000000 1.000000 -0.000000
vn 0.000000 1.000000 -0.000000
vn 0.000000 1.000000 -0.000000
vn 0.000000 1.000000 0.000000
vn 0.000000 1.000000 0.000000
vn 0.000000 1.000000 0.000000
vn 0.000000 1.000000 0.000000
vn 0.000000 1.000000 0.000000
vn 0.000000 1.000000 0.000000
vn 0.000000 1.000000 0.000000
vn 0.000000 1.000000 0.000000
vn 0.000000 1.000000 0.000000
vn 0.000000 1.000000 0.000000
vn 0.000000 1.000000 0.000000
vn 0.000000 1.000000 0.000000
vn 0.000000 -0.859435 -0.511246
vn 0.000000 -0.859435 -0.511246
vn 0.000000 1.000000 -0.000000
vn 0.000000 1.000000 -0.000000
vn 0.000000 1.000000 0.000000
vn 0.000000 1.000000 0.000000
vn 0.000000 -0.859435 0.511246
vn 0.000000 -0.859435 0.511246
vn 0.219719 0.733277 0.643450
vn 0.219719 0.733277 0.643450
vn 0.219719 0.733277 0.643450
vn 0.219719 0.733277 -0.643450
vn 0.219719 0.733277 -0.643450
vn 0.219719 0.733277 -0.643450
vn 0.437292 0.899320 0.000000
vn 0.437292 0.899320 0.000000
vn 0.437292 0.899320 0.000000
vn -0.437292 0.899320 0.000000
vn -0.437292 0.899320 0.000000
vn -0.437292 0.899320 0.000000
vn -0.219719 0.733277 0.643450
vn -0.219719 0.733277 0.643450
vn -0.219719 0.733277 0.643450
vn -0.219719 0.733277 -0.643450
vn -0.219719 0.733277 -0.643450
vn -0.219719 0.733277 -0.643450
vn 0.000000 -1.000000 0.000000
vn 0.000000 -1.000000 0.000000
vn 0.000000 -1.000000 0.000000
vn 0.000000 -1.000000 0.000000
vn 0.000000 -1.000000 0.000000
vn 0.000000 -1.000000 0.000000
s 1
g polySurface712 sword_lamme sword
f 16/1/1 13/2/2 2/3/3 4/4/4
s off
f 15/5/5 16/1/6 4/4/7 6/6/8
s 2
f 14/7/9 15/5/10 6/6/11 8/8/12
s off
f 13/9/13 14/7/14 8/8/15 2/10/16
f 2/3/17 8/11/18 6/12/19 4/4/20
f 7/13/21 1/14/22 3/15/23 5/16/24
f 7/17/25 10/18/26 9/19/27 1/20/28
s 2
f 5/21/29 11/22/30 10/18/31 7/17/32
s off
f 3/15/33 12/23/34 11/22/35 5/21/36
s 1
f 1/14/37 9/24/38 12/23/39 3/15/40
s 2
f 21/25/41 22/26/42 15/5/10 14/7/9
s 1
f 25/27/43 26/28/44 13/2/2 16/1/1
s 5
f 13/29/45 26/30/46 27/31/47 28/32/48
s 6
f 30/33/49 21/34/50 14/35/51 29/36/52
s off
f 9/37/53 10/38/54 31/39/55 32/40/56
f 14/41/57 13/42/58 28/43/59 29/44/60
s 7
f 15/45/61 22/46/62 23/47/63 18/48/64
s 8
f 24/49/65 25/50/66 16/51/67 20/52/68
s off
f 11/53/69 12/54/70 19/55/71 17/56/72
f 16/57/73 15/58/74 18/59/75 20/60/76
s 6
f 10/61/77 21/34/50 30/33/49 31/62/78
s 2
f 10/18/31 11/22/30 22/26/42 21/25/41
s 7
f 23/47/63 22/46/62 11/63/79 17/64/80
s 8
f 12/65/81 25/50/66 24/49/65 19/66/82
s 1
f 12/23/39 9/24/38 26/28/44 25/27/43
s 5
f 27/31/47 26/30/46 9/67/83 32/68/84
s off
f 23/69/85 17/70/86 33/71/87
f 19/72/88 24/73/89 33/74/90
f 17/75/91 19/76/92 33/77/93
f 20/78/94 18/79/95 33/80/96
f 18/81/97 23/82/98 33/83/99
f 24/84/100 20/85/101 33/86/102
f 28/32/103 27/31/104 32/40/105 31/62/106 30/33/107 29/44/108
g default
v -0.224025 -0.984352 0.136058
v 0.224024 -0.984352 0.136058
v -0.224025 -0.984352 -0.136058
v 0.224024 -0.984352 -0.136058
v -0.000000 -1.102767 0.000000
v -0.000000 -0.984352 -0.204725
v -0.000000 -0.984352 0.204725
v 0.224024 -0.798970 0.136058
v -0.000000 -0.798970 0.204725
v -0.000000 -0.798970 -0.204725
v 0.224024 -0.798970 -0.136058
v -0.224025 -0.798970 0.136058
v -0.224025 -0.798970 -0.136058
v -0.000000 -0.798970 0.145655
v 0.159386 -0.798970 0.096801
v -0.000000 -0.798970 -0.145655
v 0.159386 -0.798970 -0.096801
v -0.159386 -0.798970 0.096801
v -0.159386 -0.798970 -0.096801
vt 0.000000 0.000000
vt 0.500000 0.000000
vt 0.500000 1.000000
vt 0.000000 1.000000
vt 0.500000 1.000000
vt 0.500000 0.000000
vt 1.000000 0.000000
vt 1.000000 1.000000
vt 0.000000 0.000000
vt 1.000000 0.000000
vt 1.000000 1.000000
vt 0.000000 1.000000
vt 0.000000 0.000000
vt 1.000000 0.000000
vt 1.000000 1.000000
vt 0.000000 1.000000
vt 0.000000 0.000000
vt 0.500000 0.000000
vt 1.000000 0.000000
vt 0.500000 1.000000
vt 0.000000 0.000000
vt 0.500000 0.000000
vt 1.000000 0.000000
vt 0.500000 1.000000
vt 0.000000 0.000000
vt 1.000000 0.000000
vt 0.500000 1.000000
vt 0.000000 0.000000
vt 1.000000 0.000000
vt 0.500000 1.000000
vt 0.000000 0.000000
vt 0.000000 1.000000
vt 1.000000 0.000000
vt 1.000000 1.000000
vt 0.000000 0.000000
vt 1.000000 0.000000
vt 1.000000 1.000000
vt 0.000000 1.000000
vt 0.000000 0.000000
vt 1.000000 0.000000
vt 1.000000 1.000000
vt 0.000000 1.000000
vt 0.000000 0.000000
vt 1.000000 0.000000
vt 1.000000 1.000000
vt 0.000000 1.000000
vt 0.000000 0.000000
vt 1.000000 0.000000
vt 1.000000 1.000000
vt 0.000000 1.000000
vt 0.000000 0.000000
vt 1.000000 0.000000
vt 1.000000 1.000000
vt 0.000000 1.000000
vt 0.000000 0.000000
vt 1.000000 0.000000
vt 1.000000 1.000000
vt 0.000000 1.000000
vn 0.293059 0.000000 0.956094
vn 0.000000 0.000000 1.000000
vn 0.000000 0.000000 1.000000
vn 0.293059 0.000000 0.956094
vn 0.000000 0.000000 -1.000000
vn 0.000000 0.000000 -1.000000
vn 0.293059 0.000000 -0.956094
vn 0.293059 0.000000 -0.956094
vn -1.000000 0.000000 0.000000
vn -1.000000 0.000000 0.000000
vn -1.000000 0.000000 0.000000
vn -1.000000 0.000000 0.000000
vn 1.000000 0.000000 0.000000
vn 1.000000 0.000000 0.000000
vn 1.000000 0.000000 0.000000
vn 1.000000 0.000000 0.000000
vn 0.000000 -0.865627 0.500689
vn 0.000000 -0.865627 0.500689
vn 0.000000 -0.865627 0.500689
vn 0.000000 -0.865627 0.500689
vn 0.000000 -0.865627 -0.500689
vn 0.000000 -0.865627 -0.500689
vn 0.000000 -0.865627 -0.500689
vn 0.000000 -0.865627 -0.500689
vn -0.467314 -0.884091 0.000000
vn -0.467314 -0.884091 0.000000
vn -0.467314 -0.884091 0.000000
vn 0.467314 -0.884091 0.000000
vn 0.467314 -0.884091 0.000000
vn 0.467314 -0.884091 0.000000
vn -0.293059 0.000000 -0.956094
vn -0.293059 0.000000 -0.956094
vn -0.293059 0.000000 0.956094
vn -0.293059 0.000000 0.956094
vn 0.000000 1.000000 0.000000
vn 0.000000 1.000000 0.000000
vn 0.000000 1.000000 0.000000
vn 0.000000 1.000000 0.000000
vn 0.000000 1.000000 -0.000001
vn 0.000000 1.000000 -0.000001
vn 0.000000 1.000000 -0.000001
vn 0.000000 1.000000 -0.000001
vn 0.000000 1.000000 0.000000
vn 0.000000 1.000000 0.000000
vn 0.000000 1.000000 0.000000
vn 0.000000 1.000000 0.000000
vn 0.000000 1.000000 0.000000
vn 0.000000 1.000000 0.000000
vn 0.000000 1.000000 0.000000
vn 0.000000 1.000000 0.000000
vn 0.000000 1.000000 0.000000
vn 0.000000 1.000000 0.000000
vn 0.000000 1.000000 0.000000
vn 0.000000 1.000000 0.000000
vn 0.000000 1.000000 0.000001
vn 0.000000 1.000000 0.000001
vn 0.000000 1.000000 0.000001
vn 0.000000 1.000000 0.000001
vn 0.000000 1.000000 0.000000
vn 0.000000 1.000000 0.000000
vn 0.000000 1.000000 0.000000
vn 0.000000 1.000000 0.000000
vn 0.000000 1.000000 0.000000
vn 0.000000 1.000000 0.000000
s 1
g sword_lamme sword polySurface714
f 41/87/109 42/88/110 40/89/111 35/90/112
s 2
f 39/91/113 43/92/114 44/93/115 37/94/116
s off
f 45/95/117 46/96/118 36/97/119 34/98/120
f 44/99/121 41/100/122 35/101/123 37/102/124
f 35/103/125 40/104/126 34/105/127 38/106/128
f 36/107/129 39/108/130 37/109/131 38/110/132
f 34/111/133 36/112/134 38/113/135
f 37/114/136 35/115/137 38/116/138
s 2
f 46/117/139 43/92/114 39/91/113 36/118/140
s 1
f 40/89/111 42/88/110 45/119/141 34/120/142
s off
f 42/121/143 41/122/144 48/123/145 47/124/146
f 44/125/147 43/126/148 49/127/149 50/128/150
f 46/129/151 45/130/152 51/131/153 52/132/154
f 41/133/155 44/134/156 50/135/157 48/136/158
f 43/137/159 46/138/160 52/139/161 49/140/162
f 45/141/163 42/142/164 47/143/165 51/144/166
f 48/136/167 50/128/168 49/140/169 52/132/170 51/144/171 47/124/172
g default
v -0.141530 -0.150717 0.132750
v 0.141530 -0.150717 0.132750
v -0.141530 -0.150717 -0.132750
v 0.141530 -0.150717 -0.132750
v -0.113872 -0.832284 0.115685
v 0.113872 -0.832284 0.115685
v -0.113872 -0.832284 -0.115685
v 0.113872 -0.832284 -0.115685
v -0.000000 -0.832284 -0.115685
v -0.000000 -0.150717 -0.132750
v -0.000000 -0.150717 0.132750
v -0.000000 -0.832284 0.115685
v -0.000000 -0.068190 0.000000
vt 0.000000 0.000000
vt 0.500000 0.000000
vt 0.500000 1.000000
vt 0.000000 1.000000
vt 0.500000 1.000000
vt 0.500000 0.000000
vt 1.000000 0.000000
vt 1.000000 1.000000
vt 0.000000 0.000000
vt 1.000000 0.000000
vt 1.000000 1.000000
vt 0.000000 1.000000
vt 0.000000 0.000000
vt 1.000000 0.000000
vt 1.000000 1.000000
vt 0.000000 1.000000
vt 0.000000 0.000000
vt 0.000000 1.000000
vt 1.000000 0.000000
vt 1.000000 1.000000
vt 0.000000 0.000000
vt 1.000000 0.000000
vt 0.500000 1.000000
vt 0.000000 0.000000
vt 1.000000 0.000000
vt 0.500000 1.000000
vt 0.000000 0.000000
vt 1.000000 0.000000
vt 0.500000 1.000000
vt 0.000000 0.000000
vt 1.000000 0.000000
vt 0.500000 1.000000
vt 0.000000 0.000000
vt 1.000000 0.000000
vt 0.500000 1.000000
vt 0.000000 0.000000
vt 1.000000 0.000000
vt 0.500000 1.000000
vn 0.000000 -0.025031 0.999687
vn 0.000000 -0.025031 0.999687
vn 0.000000 -0.025031 0.999687
vn 0.000000 -0.025031 0.999687
vn 0.000000 -0.025031 -0.999687
vn 0.000000 -0.025031 -0.999687
vn 0.000000 -0.025031 -0.999687
vn 0.000000 -0.025031 -0.999687
vn -0.999178 -0.040547 0.000000
vn -0.999178 -0.040547 0.000000
vn -0.999178 -0.040547 0.000000
vn -0.999178 -0.040547 0.000000
vn 0.999178 -0.040547 0.000000
vn 0.999178 -0.040547 0.000000
vn 0.999178 -0.040547 0.000000
vn 0.999178 -0.040547 0.000000
vn 0.000000 -0.025031 -0.999687
vn 0.000000 -0.025031 -0.999687
vn 0.000000 -0.025031 0.999687
vn 0.000000 -0.025031 0.999687
vn 0.000000 -1.000000 0.000000
vn 0.000000 -1.000000 0.000000
vn 0.000000 -1.000000 0.000000
vn 0.000000 -1.000000 0.000000
vn 0.000000 -1.000000 0.000000
vn 0.000000 -1.000000 0.000000
vn 0.000000 0.849265 0.527966
vn 0.000000 0.849265 0.527966
vn 0.000000 0.849265 0.527966
vn 0.000000 0.849265 -0.527966
vn 0.000000 0.849265 -0.527966
vn 0.000000 0.849265 -0.527966
vn -0.503726 0.863864 0.000000
vn -0.503726 0.863864 0.000000
vn -0.503726 0.863864 0.000000
vn 0.503726 0.863864 0.000000
vn 0.503726 0.863864 0.000000
vn 0.503726 0.863864 0.000000
vn 0.000000 0.849265 -0.527966
vn 0.000000 0.849265 -0.527966
vn 0.000000 0.849265 -0.527966
vn 0.000000 0.849265 0.527966
vn 0.000000 0.849265 0.527966
vn 0.000000 0.849265 0.527966
s 1
g sword_lamme sword polySurface715
f 54/145/173 63/146/174 64/147/175 58/148/176
s 2
f 61/149/177 62/150/178 56/151/179 60/152/180
s off
f 53/153/181 55/154/182 59/155/183 57/156/184
f 56/157/185 54/158/186 58/159/187 60/160/188
s 2
f 55/161/189 62/150/178 61/149/177 59/162/190
s 1
f 64/147/175 63/146/174 53/163/191 57/164/192
s off
f 64/147/193 57/156/194 59/162/195 61/149/196 60/160/197 58/148/198
f 53/165/199 63/166/200 65/167/201
f 62/168/202 55/169/203 65/170/204
f 55/171/205 53/172/206 65/173/207
f 54/174/208 56/175/209 65/176/210
f 56/177/211 62/178/212 65/179/213
f 63/180/214 54/181/215 65/182/216
g default
v -0.285055 1.927322 -0.045393
v 0.285055 1.927322 -0.045393
v -0.285055 1.927322 0.045393
v 0.285055 1.927322 0.045393
v -0.014681 2.316415 -0.007141
v 0.014681 2.316415 -0.007141
v -0.014681 2.316415 0.007141
v 0.014681 2.316415 0.007141
v -0.000000 1.927322 -0.077131
v -0.000000 2.316415 -0.007141
v -0.000000 2.316415 0.007141
v -0.000000 1.776661 0.123776
v 0.209254 0.138978 -0.044500
v -0.000000 0.138978 -0.115954
v -0.000000 0.138978 0.115954
v 0.209254 0.138978 0.044500
v -0.209255 0.138978 -0.044500
v -0.209255 0.138978 0.044500
v -0.000000 0.105842 -0.089497
v 0.161510 0.105842 -0.034346
v -0.000000 0.105842 0.089497
v 0.161510 0.105842 0.034346
v -0.161510 0.105842 -0.034346
v -0.161510 0.105842 0.034346
v -0.000000 0.043074 0.000000
vt 0.000000 0.000000
vt 0.500000 0.000000
vt 0.500000 1.000000
vt 0.000000 1.000000
vt 0.500000 1.000000
vt 0.500000 0.000000
vt 1.000000 0.000000
vt 1.000000 1.000000
vt 0.000000 0.000000
vt 1.000000 0.000000
vt 1.000000 1.000000
vt 0.000000 1.000000
vt 0.000000 0.000000
vt 1.000000 0.000000
vt 1.000000 1.000000
vt 0.000000 1.000000
vt 0.000000 0.000000
vt 0.500000 0.000000
vt 0.500000 1.000000
vt 0.000000 1.000000
vt 0.500000 1.000000
vt 0.500000 0.000000
vt 1.000000 0.000000
vt 1.000000 1.000000
vt 0.000000 0.000000
vt 1.000000 0.000000
vt 1.000000 1.000000
vt 0.000000 1.000000
vt 0.000000 0.000000
vt 1.000000 0.000000
vt 1.000000 1.000000
vt 0.000000 1.000000
vt 0.000000 1.000000
vt 0.000000 1.000000
vt 1.000000 0.000000
vt 1.000000 1.000000
vt 1.000000 0.000000
vt 1.000000 1.000000
vt 0.000000 1.000000
vt 0.000000 0.000000
vt 0.000000 0.000000
vt 0.000000 1.000000
vt 0.000000 0.000000
vt 1.000000 0.000000
vt 1.000000 1.000000
vt 0.000000 1.000000
vt 0.000000 0.000000
vt 1.000000 0.000000
vt 1.000000 1.000000
vt 0.000000 1.000000
vt 0.000000 0.000000
vt 1.000000 0.000000
vt 1.000000 1.000000
vt 0.000000 1.000000
vt 0.000000 0.000000
vt 1.000000 0.000000
vt 1.000000 1.000000
vt 0.000000 1.000000
vt 0.000000 0.000000
vt 1.000000 0.000000
vt 1.000000 1.000000
vt 0.000000 1.000000
vt 0.000000 0.000000
vt 1.000000 0.000000
vt 1.000000 1.000000
vt 0.000000 1.000000
vt 0.000000 0.000000
vt 1.000000 0.000000
vt 0.500000 1.000000
vt 0.000000 0.000000
vt 1.000000 0.000000
vt 0.500000 1.000000
vt 0.000000 0.000000
vt 1.000000 0.000000
vt 0.500000 1.000000
vt 0.000000 0.000000
vt 1.000000 0.000000
vt 0.500000 1.000000
vt 0.000000 0.000000
vt 1.000000 0.000000
vt 0.500000 1.000000
vt 0.000000 0.000000
vt 1.000000 0.000000
vt 0.500000 1.000000
vn 0.204351 0.006050 -0.978879
vn 0.000000 0.006180 -0.999981
vn 0.000000 0.006180 -0.999981
vn 0.204351 0.006050 -0.978879
vn 0.000000 -0.009313 0.999957
vn 0.000000 -0.009313 0.999957
vn 0.292562 -0.008905 0.956205
vn 0.292562 -0.008905 0.956205
vn -0.999103 -0.042348 0.000000
vn -0.999103 -0.042348 0.000000
vn -0.999103 -0.042348 0.000000
vn -0.999103 -0.042348 0.000000
vn 0.999103 -0.042348 0.000000
vn 0.999103 -0.042348 0.000000
vn 0.999103 -0.042348 0.000000
vn 0.999103 -0.042348 0.000000
vn 0.103723 0.172291 -0.979570
vn -0.000000 0.173226 -0.984882
vn -0.000000 0.173226 -0.984882
vn 0.103723 0.172291 -0.979570
vn 0.000000 0.207271 0.978284
vn 0.000000 0.207271 0.978284
vn 0.149928 0.204928 0.967226
vn 0.149928 0.204928 0.967226
vn -0.821202 0.570638 0.000000
vn -0.821202 0.570638 0.000000
vn -0.821202 0.570638 0.000000
vn -0.821202 0.570638 0.000000
vn 0.821202 0.570638 0.000000
vn 0.821202 0.570638 0.000000
vn 0.821202 0.570638 0.000000
vn 0.821202 0.570638 0.000000
vn 0.000000 1.000000 0.000000
vn 0.000000 1.000000 0.000000
vn 0.000000 1.000000 0.000000
vn 0.000000 1.000000 0.000000
vn -0.204351 0.006050 -0.978879
vn -0.204351 0.006050 -0.978879
vn -0.103723 0.172292 -0.979570
vn -0.103723 0.172292 -0.979570
vn 0.000000 1.000000 0.000000
vn 0.000000 1.000000 0.000000
vn -0.149928 0.204928 0.967226
vn -0.149928 0.204928 0.967226
vn -0.292562 -0.008905 0.956205
vn -0.292562 -0.008905 0.956205
vn 0.257825 -0.602858 -0.755042
vn 0.257825 -0.602858 -0.755043
vn 0.257825 -0.602858 -0.755043
vn 0.257825 -0.602858 -0.755042
vn 0.257825 -0.602858 0.755042
vn 0.257825 -0.602858 0.755042
vn 0.257825 -0.602858 0.755042
vn 0.257825 -0.602858 0.755042
vn -0.570156 -0.821536 0.000000
vn -0.570156 -0.821536 0.000000
vn -0.570156 -0.821536 0.000000
vn -0.570156 -0.821536 0.000000
vn 0.570157 -0.821536 0.000000
vn 0.570157 -0.821536 0.000000
vn 0.570157 -0.821536 0.000000
vn 0.570157 -0.821536 0.000000
vn -0.257825 -0.602858 -0.755043
vn -0.257825 -0.602858 -0.755043
vn -0.257825 -0.602858 -0.755042
vn -0.257825 -0.602858 -0.755042
vn -0.257825 -0.602858 0.755043
vn -0.257825 -0.602858 0.755043
vn -0.257825 -0.602858 0.755043
vn -0.257825 -0.602858 0.755043
vn 0.192409 -0.803416 -0.563472
vn 0.192409 -0.803416 -0.563472
vn 0.192409 -0.803416 -0.563472
vn 0.192409 -0.803416 0.563472
vn 0.192409 -0.803416 0.563472
vn 0.192409 -0.803416 0.563472
vn -0.362241 -0.932084 0.000000
vn -0.362241 -0.932084 0.000000
vn -0.362241 -0.932084 0.000000
vn 0.362241 -0.932084 0.000000
vn 0.362241 -0.932084 0.000000
vn 0.362241 -0.932084 0.000000
vn -0.192409 -0.803416 -0.563472
vn -0.192409 -0.803416 -0.563472
vn -0.192409 -0.803416 -0.563472
vn -0.192409 -0.803416 0.563472
vn -0.192409 -0.803416 0.563472
vn -0.192409 -0.803416 0.563472
s 1
g sword_lamme sword polySurface710
f 78/183/217 79/184/218 74/185/219 67/186/220
s 2
f 77/187/221 80/188/222 81/189/223 69/190/224
s off
f 82/191/225 83/192/226 68/193/227 66/194/228
f 81/195/229 78/196/230 67/197/231 69/198/232
s 3
f 67/199/233 74/200/234 75/201/235 71/202/236
s 4
f 76/203/237 77/204/238 69/205/239 73/206/240
s off
f 66/207/241 68/208/242 72/209/243 70/210/244
f 69/211/245 67/212/246 71/213/247 73/214/248
s 5
f 71/202/249 75/215/250 76/216/251 73/214/252
s 1
f 74/185/219 79/184/218 82/217/253 66/218/254
s 3
f 75/201/235 74/200/234 66/219/255 70/220/256
s 5
f 76/216/251 75/215/250 70/210/257 72/221/258
s 4
f 68/222/259 77/204/238 76/203/237 72/221/260
s 2
f 83/223/261 80/188/222 77/187/221 68/224/262
s off
f 79/225/263 78/226/264 85/227/265 84/228/266
f 81/229/267 80/230/268 86/231/269 87/232/270
f 83/233/271 82/234/272 88/235/273 89/236/274
f 78/237/275 81/238/276 87/239/277 85/240/278
f 82/241/279 79/242/280 84/243/281 88/244/282
f 80/245/283 83/246/284 89/247/285 86/248/286
f 84/249/287 85/250/288 90/251/289
f 87/252/290 86/253/291 90/254/292
f 89/255/293 88/256/294 90/257/295
f 85/258/296 87/259/297 90/260/298
f 88/261/299 84/262/300 90/263/301
f 86/264/302 89/265/303 90/266/304
